<?xml version="1.0" standalone="no"?>
<!DOCTYPE svg PUBLIC "-//W3C//DTD SVG 20010904//EN"
 "http://www.w3.org/TR/2001/REC-SVG-20010904/DTD/svg10.dtd">
<svg version="1.0" xmlns="http://www.w3.org/2000/svg"
 width="2388.000000pt" height="1318.000000pt" viewBox="0 0 2388.000000 1318.000000"
 preserveAspectRatio="xMidYMid meet">

<g transform="translate(0.000000,1318.000000) scale(0.100000,-0.100000)"
fill="#000000" stroke="none">
<path d="M0 6588 l0 -6593 43 46 c38 41 143 170 207 254 25 33 57 72 138 166
23 27 42 53 42 57 0 4 17 26 38 49 20 23 45 53 55 65 10 13 30 38 45 57 15 19
42 50 60 69 17 19 32 39 32 43 0 5 19 31 43 58 23 27 60 72 82 100 22 29 58
74 80 100 22 27 63 77 90 111 28 34 68 84 90 110 22 27 58 72 80 101 22 29 58
74 80 100 89 106 110 132 119 148 5 9 25 35 45 58 20 23 54 65 76 93 22 28 51
64 65 79 14 15 37 45 52 67 14 21 41 55 60 74 18 20 40 45 48 57 36 50 135
169 147 176 7 4 13 15 13 22 0 8 4 15 10 15 5 0 16 12 24 27 9 16 34 48 57 73
23 25 49 57 58 71 17 27 57 77 128 158 24 26 43 51 43 55 0 3 8 14 18 24 39
41 72 82 72 90 0 5 12 19 26 33 15 13 51 57 81 97 30 41 67 87 82 103 16 16
37 41 47 56 11 14 34 43 51 63 18 21 33 41 33 44 0 4 16 24 35 44 19 20 35 40
35 44 0 4 8 15 18 25 10 10 62 72 114 138 128 161 199 247 215 263 7 7 13 17
13 21 0 3 15 22 33 41 19 19 47 53 63 75 16 23 35 47 42 55 39 46 66 79 90
110 15 19 39 48 54 64 16 17 28 33 28 38 0 4 19 30 43 57 23 27 60 72 82 101
22 28 60 75 85 104 25 30 65 79 90 111 25 32 63 79 85 105 22 27 65 80 95 120
30 39 60 75 66 78 6 4 22 23 35 43 13 20 51 69 84 109 33 40 69 85 80 101 11
15 37 47 58 71 20 24 86 103 145 176 191 238 208 259 288 364 23 29 53 64 68
77 14 14 26 29 26 35 0 6 12 22 27 36 14 14 34 37 43 52 9 16 32 45 51 65 19
21 52 62 74 91 21 28 43 52 47 52 4 0 8 6 8 13 0 6 19 33 43 58 23 25 47 53
52 62 6 8 55 71 110 138 142 174 169 207 215 266 22 29 48 60 59 70 10 10 22
25 27 34 5 9 25 36 44 59 19 23 54 65 77 94 24 28 54 65 69 82 l26 31 171 6
c95 4 197 11 227 17 30 6 82 13 115 14 96 6 134 16 155 43 18 23 19 43 19 346
l1 322 1161 0 c1155 0 1162 0 1165 -20 18 -163 24 -195 99 -495 53 -212 55
-219 90 -295 18 -38 38 -88 45 -110 7 -22 18 -47 25 -55 7 -8 20 -37 29 -63 9
-27 27 -69 41 -95 14 -26 25 -52 25 -58 0 -16 29 -73 64 -124 17 -25 36 -52
41 -61 6 -9 33 -49 60 -89 28 -40 54 -80 60 -89 83 -136 172 -243 362 -437
113 -115 159 -156 273 -239 105 -77 157 -116 167 -124 15 -13 84 -63 138 -98
22 -15 132 -74 244 -131 112 -56 216 -109 230 -116 14 -8 45 -20 69 -27 23 -7
42 -16 42 -21 0 -4 8 -8 17 -8 9 0 42 -8 72 -19 31 -10 83 -24 116 -31 33 -7
69 -16 80 -20 11 -5 31 -11 45 -14 39 -7 231 -55 265 -65 36 -11 155 -26 330
-42 195 -18 526 -5 710 27 50 9 104 18 120 21 17 2 39 8 50 13 11 5 34 11 50
14 79 13 412 104 459 125 23 10 52 22 66 26 29 8 390 187 435 216 17 10 37 22
45 26 8 3 34 19 57 35 23 15 46 28 50 28 5 0 24 16 43 35 19 19 38 35 43 35 5
0 24 12 42 28 37 30 76 59 110 82 12 8 54 41 92 73 39 31 74 57 80 57 5 0 20
14 32 31 13 17 64 74 115 127 169 179 266 290 266 307 0 4 11 21 25 39 14 18
25 36 25 39 0 3 13 21 30 39 16 18 30 37 30 43 0 5 23 43 50 83 28 41 50 80
50 88 0 8 5 14 11 14 9 0 52 86 116 235 14 33 38 86 54 118 16 32 29 63 29 68
0 6 10 29 21 52 20 39 35 87 60 192 6 22 14 56 18 75 5 19 19 71 30 115 50
186 63 245 71 333 5 52 11 97 15 100 4 4 358 8 787 10 694 2 780 1 774 -13 -3
-8 -2 -15 2 -15 4 0 16 -42 26 -92 10 -51 21 -106 26 -123 13 -46 47 -203 60
-275 7 -36 16 -76 21 -90 5 -14 10 -34 12 -45 10 -58 61 -262 69 -272 11 -14
62 -24 258 -53 256 -37 284 -41 335 -50 28 -5 86 -14 130 -20 44 -6 132 -19
195 -30 63 -10 180 -28 260 -40 80 -11 170 -25 200 -30 30 -5 90 -14 133 -21
85 -13 80 -9 172 -130 22 -29 57 -73 77 -98 21 -25 54 -67 75 -94 21 -26 59
-72 86 -102 26 -30 47 -59 47 -63 0 -4 18 -26 40 -50 22 -24 40 -47 40 -52 0
-4 18 -25 40 -46 22 -21 40 -42 40 -46 0 -8 29 -44 62 -80 10 -10 18 -22 18
-26 0 -5 12 -19 26 -33 15 -13 44 -48 66 -78 22 -29 47 -61 54 -70 18 -20 87
-106 139 -171 22 -28 58 -72 81 -98 23 -26 45 -55 50 -64 9 -17 23 -34 119
-146 23 -26 47 -57 55 -68 8 -12 42 -54 75 -94 33 -40 70 -86 83 -104 12 -17
34 -46 50 -64 54 -66 108 -133 145 -179 21 -27 60 -74 87 -107 27 -32 52 -67
55 -77 4 -11 10 -19 15 -19 7 0 58 -60 152 -181 20 -26 45 -57 55 -68 10 -11
36 -43 58 -71 22 -29 58 -74 80 -101 22 -27 58 -71 80 -99 22 -28 58 -72 80
-99 22 -27 60 -74 85 -106 25 -32 63 -79 85 -104 22 -26 58 -71 80 -100 22
-28 59 -73 82 -99 23 -26 43 -50 43 -55 0 -4 15 -24 33 -43 17 -20 36 -43 41
-52 6 -9 25 -34 44 -54 19 -21 44 -50 56 -66 57 -78 107 -140 135 -166 17 -17
31 -35 31 -41 0 -6 12 -22 26 -36 15 -13 34 -36 43 -50 17 -27 68 -90 134
-164 20 -23 37 -46 37 -50 0 -4 19 -29 43 -56 23 -26 62 -73 87 -104 25 -31
61 -76 80 -100 19 -24 53 -66 75 -95 46 -59 117 -145 173 -210 21 -25 47 -60
58 -78 10 -17 22 -32 26 -32 4 0 20 -19 37 -42 16 -24 41 -55 55 -70 14 -15
26 -30 26 -34 0 -4 19 -28 43 -54 23 -26 60 -70 82 -99 22 -28 58 -74 80 -102
22 -28 61 -76 88 -105 26 -30 47 -58 47 -64 0 -5 18 -26 40 -46 22 -21 40 -42
40 -47 0 -5 17 -29 38 -52 36 -40 156 -190 196 -244 11 -14 36 -45 55 -68 20
-23 54 -65 76 -93 48 -61 110 -137 165 -205 98 -121 127 -157 165 -206 22 -28
58 -73 80 -99 22 -26 48 -58 58 -71 21 -29 59 -74 111 -134 38 -44 39 -45 102
-45 l64 0 0 6590 0 6590 -11940 0 -11940 0 0 -6592z m8248 5435 c20 -16 42
-33 47 -39 6 -5 26 -22 45 -36 19 -15 47 -37 62 -50 15 -13 44 -34 64 -48 20
-14 58 -43 84 -65 27 -22 90 -71 140 -110 128 -98 267 -208 320 -252 36 -31
41 -39 25 -42 -20 -3 -94 17 -109 31 -6 4 -17 8 -25 8 -19 0 -208 58 -233 71
-10 5 -25 9 -33 9 -19 0 -203 57 -227 70 -10 6 -34 10 -53 10 -19 0 -35 5 -35
10 0 6 -8 10 -18 10 -17 0 -48 9 -208 60 -34 11 -69 20 -78 20 -9 0 -16 5 -16
10 0 6 -15 10 -34 10 -19 0 -38 5 -41 10 -3 6 -16 10 -29 10 -12 0 -27 5 -34
12 -9 9 8 30 73 93 47 45 82 85 78 88 -3 4 3 7 15 7 11 0 25 6 29 13 10 17
135 116 146 117 5 0 25 -12 45 -27z m-248 -113 c0 -5 -7 -10 -16 -10 -8 0 -12
5 -9 10 3 6 10 10 16 10 5 0 9 -4 9 -10z m-40 -19 c0 -14 -95 -111 -108 -111
-7 0 -12 -7 -12 -15 0 -8 -9 -15 -19 -15 -11 0 -34 -8 -53 -17 -18 -9 -45 -22
-60 -30 -14 -7 -32 -13 -40 -13 -8 0 -33 -9 -56 -20 -23 -11 -57 -23 -75 -27
-17 -3 -44 -15 -59 -26 -14 -11 -31 -16 -37 -13 -6 4 -9 1 -5 -7 4 -11 -1 -13
-21 -9 -15 2 -33 -2 -43 -11 -22 -19 -67 -33 -58 -18 4 6 16 11 27 11 10 0 19
4 19 9 0 12 114 71 136 71 8 0 12 5 9 10 -3 6 3 10 14 10 11 0 23 5 26 10 3 6
15 10 26 10 10 0 19 4 19 9 0 15 86 61 114 61 15 0 25 5 24 12 -2 7 12 17 30
23 19 6 37 16 40 21 4 5 23 17 42 27 19 10 51 27 70 38 39 21 50 23 50 10z
m1127 -527 c-3 -3 -12 -4 -19 -1 -8 3 -5 6 6 6 11 1 17 -2 13 -5z m3158 -64
c28 -5 84 -14 125 -21 41 -6 154 -32 250 -56 96 -25 191 -49 210 -53 19 -5 53
-14 75 -20 22 -6 55 -15 73 -20 18 -4 43 -15 57 -24 13 -9 31 -16 40 -16 15 0
460 -222 526 -263 58 -36 167 -115 279 -203 58 -46 123 -96 144 -111 54 -39
312 -304 398 -408 36 -44 128 -183 128 -193 0 -5 9 -17 20 -27 11 -10 20 -23
20 -30 0 -7 9 -20 20 -30 11 -10 20 -23 20 -30 0 -7 9 -20 20 -30 11 -10 20
-23 20 -30 0 -7 9 -20 20 -30 11 -10 20 -24 20 -32 0 -7 5 -13 10 -13 6 0 10
-8 10 -17 0 -10 18 -52 40 -93 22 -41 40 -79 40 -85 0 -6 13 -37 30 -70 16
-33 30 -65 30 -71 0 -5 10 -30 21 -54 41 -85 57 -128 51 -135 -4 -4 1 -13 12
-20 14 -11 17 -22 13 -44 -4 -20 -1 -33 9 -42 11 -9 14 -22 10 -41 -3 -15 -2
-28 3 -28 5 0 16 -38 26 -85 10 -47 22 -85 28 -85 5 0 7 -18 5 -39 -2 -22 1
-39 6 -38 5 1 10 -7 11 -18 1 -11 6 -39 10 -63 7 -37 5 -42 -9 -36 -9 3 -16
11 -16 18 0 6 -5 4 -10 -4 -7 -12 -12 -12 -22 -2 -6 6 -20 12 -30 12 -11 0
-33 7 -50 16 -18 9 -53 16 -80 15 -26 0 -58 3 -70 8 -13 5 -27 9 -31 9 -5 0
-14 8 -21 17 -10 13 -27 16 -96 13 l-85 -3 -3 83 c-2 46 1 81 5 79 4 -3 6 15
4 39 -1 24 -7 44 -12 44 -5 0 -9 16 -9 36 0 30 -4 37 -29 45 -28 10 -30 14
-36 84 -5 47 -12 76 -21 79 -10 4 -11 13 -3 38 5 18 9 34 9 35 0 2 -9 3 -19 3
-11 0 -21 5 -23 10 -2 6 -41 13 -88 15 -46 3 -87 9 -90 14 -4 7 -203 23 -307
25 -18 1 -33 4 -33 9 0 4 -13 7 -30 7 l-30 0 0 80 c0 64 -3 80 -15 80 -11 0
-15 11 -15 40 0 25 -5 40 -12 40 -8 0 -13 15 -14 37 0 20 -6 39 -12 41 -7 2
-12 21 -12 42 0 21 -5 40 -11 42 -9 3 -29 96 -30 141 0 14 -9 17 -47 17 -26 0
-76 5 -112 10 -36 5 -146 11 -244 15 -99 3 -185 10 -192 16 -6 5 -28 10 -48
11 -23 1 -36 6 -36 15 0 7 -7 13 -15 13 -11 0 -15 11 -15 40 0 22 -4 40 -10
40 -5 0 -10 18 -10 40 0 29 -4 40 -15 40 -11 0 -15 11 -15 40 0 33 -3 40 -20
40 -21 0 -22 6 -23 123 0 23 -4 37 -12 37 -8 0 -11 8 -8 19 8 30 -13 34 -132
32 -94 -2 -114 1 -118 14 -6 13 -35 15 -207 15 -110 0 -200 4 -200 9 0 5 -13
11 -30 14 -36 8 -586 10 -620 3 -13 -3 -35 1 -48 10 -21 14 -22 17 -9 32 16
19 41 201 31 227 -4 9 -1 20 5 25 20 12 3 80 -20 80 -10 0 -21 -4 -24 -10 -8
-12 -82 -13 -89 -1 -8 12 -67 6 -76 -9 -5 -8 -56 -14 -160 -18 -114 -4 -153
-8 -157 -18 -7 -19 -23 -7 -23 17 0 21 -34 27 -46 8 -4 -7 -22 -9 -47 -6 -28
4 -44 1 -51 -8 -11 -14 -70 -22 -226 -31 -41 -3 -82 -8 -90 -11 -8 -3 -28 -7
-45 -9 -144 -11 -190 -17 -193 -25 -2 -5 -19 -9 -37 -9 -38 0 -67 -9 -61 -19
2 -3 -11 -7 -30 -8 -29 -3 -34 0 -35 20 -1 12 -1 26 0 30 1 5 -4 7 -11 5 -7
-3 -13 -11 -13 -19 0 -16 -114 -79 -133 -73 -7 2 -11 -3 -10 -11 2 -7 0 -14
-4 -14 -22 -2 -28 0 -28 10 0 17 43 48 68 49 14 0 21 4 17 11 -4 6 2 13 13 16
13 3 19 11 16 21 -2 10 2 4 9 -11 12 -25 15 -26 26 -13 11 13 11 16 -3 16 -9
0 -16 7 -16 15 0 8 9 15 19 15 10 0 21 6 24 14 3 7 23 16 45 20 30 4 41 12 46
28 6 23 7 23 18 3 16 -29 16 -29 33 -15 11 9 12 15 5 20 -16 10 -1 40 17 33 8
-3 19 0 24 8 7 11 9 9 9 -6 0 -12 3 -16 8 -9 4 6 15 13 25 17 22 8 22 27 1 27
-13 0 -14 3 -4 15 14 17 245 133 277 139 11 3 29 9 39 14 22 12 114 46 164 61
131 39 184 52 195 47 7 -2 16 -1 21 4 10 9 135 47 199 60 122 25 165 32 210
36 28 2 57 7 65 11 48 21 602 24 715 3z m-1235 -582 c0 -7 -12 -21 -25 -31
-22 -15 -25 -16 -25 -2 0 8 7 15 15 15 8 0 15 7 15 15 0 8 5 15 10 15 6 0 10
-6 10 -12z m-96 -222 c-5 -14 -34 -31 -34 -20 0 8 24 33 32 34 4 0 5 -6 2 -14z
m1896 -106 c-20 -13 -90 -13 -90 0 0 6 24 10 53 10 37 0 48 -3 37 -10z m45 -8
c-3 -3 -11 0 -18 7 -9 10 -8 11 6 5 10 -3 15 -9 12 -12z m-557 -165 c2 -49 -1
-77 -8 -77 -5 0 -10 8 -10 19 0 10 -3 46 -7 81 -5 51 -4 62 8 58 10 -3 15 -26
17 -81z m22 -192 c0 -8 -4 -15 -10 -15 -5 0 -10 7 -10 15 0 8 5 15 10 15 6 0
10 -7 10 -15z m5120 -576 c155 -15 302 -29 420 -39 182 -15 234 -20 285 -25
28 -3 104 -10 170 -16 66 -5 161 -14 210 -19 50 -6 142 -15 205 -20 63 -6 163
-15 223 -20 59 -6 155 -14 215 -19 199 -17 193 -15 264 -92 143 -155 205 -224
247 -273 24 -28 73 -83 110 -123 36 -39 104 -115 151 -168 47 -53 112 -126
145 -162 l60 -66 -50 7 c-54 8 -178 22 -315 36 -47 5 -123 14 -170 19 -47 6
-134 15 -195 21 -60 7 -146 16 -190 20 -44 5 -129 14 -190 19 -60 6 -168 17
-240 26 -183 22 -275 33 -390 44 -55 6 -181 20 -280 31 -229 25 -337 37 -450
49 -49 6 -116 13 -147 16 -32 4 -58 11 -58 17 0 11 -22 66 -46 111 -8 16 -14
33 -14 38 0 8 -91 230 -129 314 -10 22 -28 66 -41 98 -12 31 -26 60 -31 63 -5
3 -9 13 -9 22 -1 9 -9 35 -20 57 -11 22 -19 44 -20 49 0 9 82 5 280 -15z
m-2900 -567 c0 -13 -4 -20 -10 -17 -5 3 -10 21 -10 38 0 24 3 28 10 17 5 -8
10 -25 10 -38z m184 -200 c2 -4 -15 -8 -40 -8 -24 0 -44 4 -44 8 0 5 18 8 39
8 22 0 42 -3 45 -8z m373 -169 c-3 -10 -5 -4 -5 12 0 17 2 24 5 18 2 -7 2 -21
0 -30z m30 -365 c-3 -7 -5 -2 -5 12 0 14 2 19 5 13 2 -7 2 -19 0 -25z"/>
<path d="M11147 11063 c-4 -3 -7 -11 -7 -17 0 -6 5 -5 12 2 6 6 9 14 7 17 -3
3 -9 2 -12 -2z"/>
<path d="M10474 10956 c22 -18 41 -19 71 -6 16 7 13 9 -17 9 -20 1 -45 4 -55
7 -16 5 -16 4 1 -10z"/>
<path d="M11066 10931 c-4 -7 -5 -15 -2 -18 9 -9 19 4 14 18 -4 11 -6 11 -12
0z"/>
<path d="M11031 10844 c0 -11 3 -14 6 -6 3 7 2 16 -1 19 -3 4 -6 -2 -5 -13z"/>
<path d="M12160 10796 c0 -9 5 -16 10 -16 6 0 10 4 10 9 0 6 -4 13 -10 16 -5
3 -10 -1 -10 -9z"/>
<path d="M10218 10783 c7 -3 16 -2 19 1 4 3 -2 6 -13 5 -11 0 -14 -3 -6 -6z"/>
<path d="M14530 9229 c-25 -7 -25 -7 -2 -8 15 -1 26 -9 29 -21 6 -21 28 -27
38 -10 4 6 11 8 16 5 5 -4 9 -2 9 3 0 5 -12 15 -27 22 -37 18 -34 18 -63 9z"/>
<path d="M14645 9200 c3 -5 8 -10 11 -10 2 0 4 5 4 10 0 6 -5 10 -11 10 -5 0
-7 -4 -4 -10z"/>
<path d="M14717 9183 c-4 -3 -6 -40 -6 -82 2 -60 3 -67 8 -36 6 38 7 39 19 18
6 -12 12 -30 13 -40 1 -13 3 -11 9 7 l8 25 1 -24 c1 -13 4 -22 7 -19 3 3 -1
34 -8 68 -10 50 -10 63 1 69 9 6 6 10 -11 14 -29 8 -33 8 -41 0z"/>
<path d="M14508 9108 c3 -64 12 -87 32 -88 3 0 4 36 2 80 -3 67 -6 80 -20 80
-15 0 -17 -10 -14 -72z"/>
<path d="M14778 9013 c-15 -4 -18 -16 -18 -79 0 -55 3 -74 13 -74 9 0 12 10 9
31 -3 22 -1 30 7 25 6 -4 11 -18 11 -31 0 -23 34 -45 47 -31 4 3 -1 6 -10 6
-13 0 -17 10 -17 46 0 25 -3 43 -7 41 -5 -3 -8 12 -7 34 0 21 -2 38 -5 38 -3
-1 -14 -3 -23 -6z"/>
<path d="M14725 8915 c-3 -26 -4 -49 -2 -52 3 -3 9 16 12 42 4 25 5 48 2 51
-2 3 -8 -16 -12 -41z"/>
<path d="M14840 8700 l-45 -6 50 -5 c28 -3 54 -3 58 1 13 12 -15 16 -63 10z"/>
<path d="M11803 4225 c-15 -19 -33 -35 -39 -35 -6 0 -23 -11 -38 -25 -15 -14
-29 -25 -31 -25 -8 0 -47 -33 -85 -71 -20 -20 -46 -39 -58 -43 -11 -4 -32 -20
-46 -37 -14 -16 -29 -29 -34 -29 -17 0 -63 -42 -72 -66 -6 -15 -18 -24 -32
-24 -13 0 -43 -18 -66 -40 -24 -22 -47 -40 -50 -40 -12 0 -72 -57 -66 -62 3
-3 -6 -8 -19 -12 -13 -3 -45 -28 -71 -56 -25 -27 -57 -55 -70 -62 -13 -7 -56
-43 -96 -80 -39 -38 -76 -68 -81 -68 -26 0 -1 -35 31 -43 19 -5 39 -15 43 -23
4 -8 13 -14 18 -14 12 0 99 -80 99 -91 0 -4 -13 -12 -30 -17 -16 -6 -29 -8
-28 -4 1 4 -4 24 -11 44 -8 25 -17 35 -27 31 -8 -3 -14 -1 -14 4 0 6 -10 15
-22 22 -13 6 -15 9 -5 7 9 -3 17 -1 17 4 0 6 -7 10 -15 10 -8 0 -15 5 -15 11
0 5 -4 7 -10 4 -17 -10 -11 -30 15 -61 14 -16 30 -35 36 -42 6 -7 14 -10 20
-7 5 4 9 -6 9 -21 0 -16 10 -36 25 -50 14 -13 30 -35 35 -49 5 -14 16 -25 25
-25 9 0 18 -12 22 -30 4 -22 11 -30 22 -27 16 3 17 8 6 42 -7 20 -6 20 9 1 15
-18 16 -18 16 -2 0 10 9 29 20 43 14 18 18 35 15 57 -4 22 -3 27 4 16 5 -8 7
-18 4 -24 -3 -5 -1 -6 6 -2 6 4 9 12 6 17 -4 5 -1 9 5 9 18 0 41 27 50 61 10
35 6 49 -16 49 -15 0 -21 59 -6 62 31 6 68 3 75 -6 7 -10 16 -2 61 57 7 10 16
35 20 56 6 42 23 61 55 64 21 1 31 17 11 17 -5 0 -10 8 -10 18 0 10 -4 22 -10
28 -6 6 -3 10 11 11 14 1 19 -3 15 -13 -7 -18 8 -18 24 1 10 12 9 16 -4 21
-14 5 -14 9 -4 22 7 8 13 22 13 31 0 16 4 17 48 20 18 1 26 10 35 37 6 19 9
43 7 52 -2 9 -4 22 -5 27 -1 6 -2 18 -1 29 1 15 4 16 16 6 10 -9 15 -9 15 -1
0 6 9 11 20 11 13 0 22 9 26 27 8 30 23 49 39 50 16 2 31 66 17 71 -7 2 -10 7
-7 12 3 4 -4 6 -15 3 -11 -3 -20 -9 -20 -14 0 -5 -8 -9 -17 -9 -11 0 -14 -3
-7 -8 18 -12 24 -52 8 -52 -8 0 -14 -4 -14 -10 0 -5 -10 -14 -21 -21 -17 -9
-20 -8 -14 2 6 9 3 11 -8 6 -9 -3 -19 -2 -22 4 -4 5 -1 8 6 7 7 -2 14 4 15 12
3 32 5 34 19 16 14 -19 15 -18 15 11 0 22 8 36 32 54 18 13 41 32 51 43 19 18
19 17 12 -13 -6 -27 -4 -31 15 -31 18 0 19 3 9 22 -10 18 -8 24 12 39 13 10
34 19 46 19 14 0 21 5 18 13 -7 17 33 79 48 74 15 -5 23 -1125 9 -1231 -7 -53
-6 -66 5 -66 11 0 13 119 13 665 0 654 0 665 -20 665 -10 0 -32 -16 -47 -35z
m-283 -275 c0 -5 -2 -10 -4 -10 -3 0 -8 5 -11 10 -3 6 -1 10 4 10 6 0 11 -4
11 -10z m-40 -40 c0 -5 -9 -10 -20 -10 -11 0 -20 5 -20 10 0 6 9 10 20 10 11
0 20 -4 20 -10z m-120 -116 c0 -21 -4 -33 -10 -29 -5 3 -15 3 -21 -1 -8 -4 -7
-9 2 -15 9 -5 -6 -8 -39 -7 -53 1 -53 1 -29 17 14 9 37 29 51 44 34 36 46 34
46 -9z m-187 -131 c-7 -2 -13 -11 -13 -18 0 -14 -27 -28 -40 -20 -4 3 -15 -6
-24 -20 -16 -25 -46 -34 -46 -15 0 6 6 10 13 10 8 0 24 12 38 26 23 26 54 43
74 43 6 -1 4 -3 -2 -6z m185 -111 c3 -16 -1 -19 -17 -15 -21 5 -27 23 -14 37
12 11 28 0 31 -22z m-322 -29 c-1 -22 -7 -38 -16 -41 -19 -7 -40 -28 -40 -40
0 -15 -26 -22 -39 -9 -18 18 -14 49 7 46 23 -4 61 21 55 36 -3 10 21 45 31 45
2 0 2 -17 2 -37z m260 -6 c4 -4 4 -10 0 -14 -4 -4 -11 -2 -15 5 -7 12 -45 12
-57 -1 -12 -11 27 -46 44 -40 14 4 14 3 3 -5 -10 -7 -21 -6 -37 6 -25 18 -31
48 -11 55 17 6 65 2 73 -6z m-26 -27 c0 -5 -4 -10 -9 -10 -6 0 -13 5 -16 10
-3 6 1 10 9 10 9 0 16 -4 16 -10z m-233 -275 c8 -22 -6 -33 -17 -15 -13 20
-12 30 0 30 6 0 13 -7 17 -15z"/>
<path d="M11564 3845 c0 -14 4 -25 8 -25 4 0 7 9 5 20 -5 29 -13 33 -13 5z"/>
<path d="M11245 3381 c5 -16 4 -21 -4 -17 -7 5 -9 1 -5 -8 6 -16 44 -23 44 -8
0 4 -10 18 -21 32 l-20 25 6 -24z"/>
<path d="M11191 3083 c-17 -3 -20 -7 -12 -13 16 -9 51 -1 51 11 0 5 -3 8 -7 8
-5 -1 -19 -4 -32 -6z"/>
<path d="M11373 3023 c9 -2 25 -2 35 0 9 3 1 5 -18 5 -19 0 -27 -2 -17 -5z"/>
<path d="M11458 3013 c12 -2 32 -2 45 0 12 2 2 4 -23 4 -25 0 -35 -2 -22 -4z"/>
<path d="M11625 2980 c3 -5 18 -10 33 -9 24 0 25 1 7 9 -28 12 -47 12 -40 0z"/>
<path d="M11735 2970 c-19 -8 -19 -9 3 -9 12 -1 22 4 22 9 0 6 -1 10 -2 9 -2
0 -12 -4 -23 -9z"/>
<path d="M11768 2943 c7 -3 16 -2 19 1 4 3 -2 6 -13 5 -11 0 -14 -3 -6 -6z"/>
</g>
</svg>
